<svg xmlns="http://www.w3.org/2000/svg" viewBox="0 0 37.16 36.56"><defs><style>.cls-1{fill:#fff;}</style></defs><g id="Layer_2" data-name="Layer 2"><g id="Layer_1-2" data-name="Layer 1"><path class="cls-1" d="M0,20.34a2.28,2.28,0,0,1,1.85-1.2c1.12,0,1.84.64,2.12,2A14,14,0,0,0,8,28.5a14.31,14.31,0,0,0,19.92,0c.17-.17.32-.36.56-.63A7.88,7.88,0,0,0,26,28.1a2.06,2.06,0,0,1-1.72-.37A1.72,1.72,0,0,1,23.67,26a1.79,1.79,0,0,1,1.54-1.42c1.62-.27,3.26-.51,4.89-.76.7-.1,1.41-.23,2.12-.31a1.88,1.88,0,0,1,2.29,1.7q.54,3.38,1,6.77A1.83,1.83,0,0,1,34,34.27c-1,.15-1.83-.5-2.07-1.75-.12-.62-.2-1.24-.33-2-.64.58-1.19,1.1-1.76,1.59A18.24,18.24,0,0,1,.25,22.87C.17,22.57.08,22.29,0,22Z"/><path class="cls-1" d="M37.16,16.21a2.46,2.46,0,0,1-1.52,1.18c-1.23.22-2.15-.55-2.47-2-1.24-5.53-4.57-9.25-10-10.81S12.9,4.44,8.87,8.46c-.09.09-.23.17-.19.38l2.51-.38A1.91,1.91,0,0,1,13.56,10a1.81,1.81,0,0,1-1.71,2.1c-2.28.37-4.57.72-6.85,1a1.84,1.84,0,0,1-2.28-1.63C2.31,9.05,2,6.63,1.65,4.2A1.8,1.8,0,0,1,3.14,2.3a1.77,1.77,0,0,1,2,1.28,13.39,13.39,0,0,1,.31,1.79c.08.53.27.53.62.2.65-.59,1.28-1.21,2-1.74a18.23,18.23,0,0,1,28.74,9.54c.11.4.23.8.34,1.19Z"/></g></g></svg>