<svg xmlns="http://www.w3.org/2000/svg" viewBox="0 0 39.03 39.1"><defs><style>.cls-1{fill:#012169;}</style></defs><g id="Layer_2" data-name="Layer 2"><g id="Layer_1-2" data-name="Layer 1"><path class="cls-1" d="M31,19.35c-6.4,5.56-22.9,5.55-29.28,0,0,1.46-.05,2.79,0,4.11a3.88,3.88,0,0,0,2.05,3,19,19,0,0,0,8.11,2.78,39.86,39.86,0,0,0,8,.15c.63,0,1.16.05,1.22.76s-.4.91-1,1c-5.37.51-10.61.13-15.59-2.16a12,12,0,0,1-2.68-1.77,16,16,0,0,0-.07,3.24A3.54,3.54,0,0,0,3.49,33.2a17.89,17.89,0,0,0,8.52,3A33.93,33.93,0,0,0,22.07,36c.6-.1,1.17-.06,1.32.63s-.34,1-.94,1.09c-6.29,1-12.45.78-18.32-2a8.83,8.83,0,0,1-2.85-2.15A4.86,4.86,0,0,1,0,30.28V8c0-2.1,1.22-3.49,2.82-4.61a19.93,19.93,0,0,1,9-3.09,32.1,32.1,0,0,1,13.47.92,13.25,13.25,0,0,1,6.06,3.34,5.09,5.09,0,0,1,1.46,3.6q0,6.16,0,12.34c0,.17,0,.33,0,.49,0,.5-.25.89-.81.92s-.8-.31-.91-.82A7.74,7.74,0,0,1,31,19.35ZM16.28,1.85a26,26,0,0,0-7.4.87A13,13,0,0,0,3,5.56c-1.66,1.53-1.6,3.26.08,4.76a11,11,0,0,0,4,2.19,29.66,29.66,0,0,0,18.42.12A10.42,10.42,0,0,0,30.13,10a2.79,2.79,0,0,0,.06-4A7.86,7.86,0,0,0,27.6,4.07,25.06,25.06,0,0,0,16.28,1.85ZM31,11.61C25,17,8.38,17.29,1.84,11.69a28.44,28.44,0,0,0-.1,3.06A3.8,3.8,0,0,0,3.1,18.12,11.6,11.6,0,0,0,7,20.27,30.29,30.29,0,0,0,21.26,21.4,19.2,19.2,0,0,0,28.5,19c1.68-1,2.76-2.3,2.52-4.41A27.11,27.11,0,0,1,31,11.61Z"/><path class="cls-1" d="M36.4,25.33c0-.59,0-1.11.09-1.62s.33-.88.87-.87a.86.86,0,0,1,.88,1c0,1.49,0,3,0,4.47,0,.49-.25.69-.73.69-1.45,0-2.91,0-4.37,0-.54,0-1-.22-1-.82s.39-.81.92-.9a5.31,5.31,0,0,1,1.26,0c.3,0,.74.17.86-.2s-.29-.46-.51-.64a5.93,5.93,0,0,0-9.39,3.33A6.1,6.1,0,0,0,30,37.17a6,6,0,0,0,7.18-5.48c0-.1,0-.2,0-.3.07-.6.3-1.11,1-1.05s.84.55.81,1.13a7.63,7.63,0,0,1-4.16,6.68,7.75,7.75,0,0,1-8.58-.76,7.86,7.86,0,0,1-2.67-8.54,8,8,0,0,1,6.67-5.49,7.22,7.22,0,0,1,5.2,1.42C35.75,25,35.93,25.25,36.4,25.33Z"/></g></g></svg>