<svg xmlns="http://www.w3.org/2000/svg" viewBox="0 0 36.98 40.9"><defs><style>.cls-1{fill:#012169;}</style></defs><g id="Layer_2" data-name="Layer 2"><g id="Layer_1-2" data-name="Layer 1"><path class="cls-1" d="M36.93,11.57c-.43,12-5.84,21.3-15.78,28-2.66,1.78-2.67,1.79-5.34,0C8.26,34.44,3,27.7,1,18.68A45.48,45.48,0,0,1,0,11.33,2.18,2.18,0,0,1,1.28,9.08Q9.35,4.72,17.39.31a2.13,2.13,0,0,1,2.23,0q8,4.38,16,8.72A2.18,2.18,0,0,1,36.93,11.57Zm-3.54,1.52a1.5,1.5,0,0,0-.75-1.82C28.15,8.88,23.7,6.43,19.24,4A1.43,1.43,0,0,0,17.7,4Q11,7.69,4.31,11.31a1.2,1.2,0,0,0-.75,1.31c.13,1.12.18,2.26.37,3.37,1.48,8.89,6.26,15.61,13.62,20.63a1.37,1.37,0,0,0,1.91,0c.69-.56,1.46-1,2.16-1.59A29.69,29.69,0,0,0,33.39,13.09Z"/><path class="cls-1" d="M12.8,17.28a1.82,1.82,0,0,1,1.34.72c1,1.17,2,2.31,3,3.51.42.52.65.53,1.07,0,1.34-1.73,2.73-3.43,4.11-5.14a8.5,8.5,0,0,1,.74-.85,1.34,1.34,0,0,1,2-.13,1.36,1.36,0,0,1,.18,2c-1.12,1.43-2.26,2.84-3.4,4.26L19.15,25c-.93,1.13-1.77,1.19-2.73.12-1.55-1.74-3.06-3.52-4.57-5.29a1.44,1.44,0,0,1-.33-1.7A1.49,1.49,0,0,1,12.8,17.28Z"/></g></g></svg>