<svg xmlns="http://www.w3.org/2000/svg" viewBox="0 0 41.87 51.87"><defs><style>.cls-1{fill:#fff;}</style></defs><g id="Layer_2" data-name="Layer 2"><g id="Layer_1-2" data-name="Layer 1"><path class="cls-1" d="M17.37,51.87a2.72,2.72,0,0,1-1.5-2.75c.07-1.69,0-3.38,0-5.07a1.71,1.71,0,0,0-.67-1.6,2.34,2.34,0,0,1-.94-2c0-1.92,0-3.85,0-5.76a6,6,0,0,1,2.25-4.4c.53-.46.66-.74.23-1.39a5.06,5.06,0,1,1,8.3,0c-.43.65-.3.93.23,1.39a6.33,6.33,0,0,1,2.28,5c0,1.65,0,3.31,0,5a2.62,2.62,0,0,1-1,2.32A1.5,1.5,0,0,0,26,43.94c0,1.72,0,3.46,0,5.18a2.72,2.72,0,0,1-1.5,2.75Zm1-6.54h0c0,1.11,0,2.23,0,3.34,0,.41,0,.78.59.81s.7-.36.7-.83,0-1.23,0-1.84c0-1.23,0-2.46.05-3.69a1.18,1.18,0,0,1,1.23-1.25c.81,0,1.15.51,1.26,1.23a7,7,0,0,1,0,.92c0,1.38,0,2.77,0,4.15,0,.51-.26,1.31.67,1.29s.6-.84.61-1.34c0-1.84,0-3.69,0-5.53,0-.83.14-1.54,1-1.84.51-.16.57-.56.57-1,0-1.53,0-3.07,0-4.6a4.19,4.19,0,0,0-8.37,0c-.07,1.53,0,3.07,0,4.61,0,.38,0,.83.43,1,1.08.34,1.2,1.16,1.18,2.11S18.34,44.49,18.34,45.33Zm2.57-16.78a2.51,2.51,0,0,0,2.61-2.49A2.58,2.58,0,1,0,18.36,26,2.51,2.51,0,0,0,20.91,28.55Z"/><path class="cls-1" d="M21.52,0a6.74,6.74,0,0,1,1.24,1.79C24,3.92,25.23,6,26.44,8.18c.67,1.2.23,2.18-1.1,2.16s-1.53.56-1.47,1.67,0,2.38,0,3.57a1.47,1.47,0,0,1-1.57,1.71q-1.38.06-2.76,0A1.48,1.48,0,0,1,18,15.58c0-1.38,0-2.76,0-4.15,0-.73-.25-1-1-1-2-.12-2.34-.88-1.33-2.61,1.27-2.2,2.53-4.4,3.81-6.58A14.77,14.77,0,0,1,20.36,0ZM20.44,11.56h0c0,.77,0,1.54,0,2.31,0,.33,0,.76.45.78s.53-.45.53-.82c0-1.42,0-2.84,0-4.26,0-.81.22-1.46,1.09-1.65.72-.15.62-.5.33-1-.51-.85-1-1.72-1.5-2.58-.24-.43-.48-.63-.8-.07C20,5.22,19.49,6.15,19,7.08c-.26.43-.22.7.33.81.92.2,1.19.85,1.16,1.72C20.42,10.26,20.44,10.91,20.44,11.56Z"/><path class="cls-1" d="M40.56,8.1a1.24,1.24,0,0,1,1.29,1.59c-.14.83-.4,1.63-.62,2.45-.54,2-1,4-1.63,6-.42,1.47-1.38,1.76-2.42.68-.71-.74-1.16-.76-1.83,0s-1.66,1.7-2.5,2.54c-1.23,1.21-1.66,1.22-2.86,0l-1.3-1.3c-1.29-1.3-1.28-1.69,0-3,.86-.88,1.71-1.77,2.61-2.6.58-.52.62-.89,0-1.47-1.29-1.29-1-2.2.72-2.67,2.59-.71,5.18-1.4,7.77-2.09C40.12,8.18,40.39,8.13,40.56,8.1Zm-1.66,3c-1.48.4-2.72.74-4,1.06-.48.13-.51.33-.23.72a1.43,1.43,0,0,1-.29,2L31.25,18.1c-.24.24-.55.51-.18.87s.61,0,.84-.23q1.56-1.53,3.09-3.08c.63-.62,1.29-1,2.13-.36.28.2.57.32.7-.15C38.18,13.87,38.51,12.6,38.9,11.11Z"/><path class="cls-1" d="M0,9.55C0,8.5.63,7.92,1.51,8.15c2.94.74,5.87,1.51,8.77,2.36,1.21.35,1.41,1.39.42,2.29-.81.75-.72,1.22,0,1.89.95.84,1.82,1.77,2.69,2.68s1,1.48,0,2.44c-.58.61-1.18,1.21-1.79,1.79-.95.91-1.47.9-2.44,0s-2-1.93-2.92-2.94c-.52-.55-.87-.53-1.41,0-1.37,1.31-2.21,1.07-2.72-.77-.7-2.51-1.36-5-2-7.55C.08,10,0,9.71,0,9.55ZM5.61,15a2.06,2.06,0,0,1,1.3.73c1,.94,1.88,1.91,2.85,2.82.28.27.54,1,1.07.4s-.14-.74-.4-1c-.95-1-1.93-2-2.91-2.93-.43-.42-.91-1-.58-1.5.88-1.4-.21-1.39-1-1.61s-1.42-.33-2.11-.55-.78.09-.62.67.39,1.39.58,2.1S4,16,5.31,15C5.39,15,5.53,15,5.61,15Z"/></g></g></svg>