<svg xmlns="http://www.w3.org/2000/svg" viewBox="0 0 41.16 43.71"><defs><style>.cls-1{fill:#012169;}</style></defs><g id="Layer_2" data-name="Layer 2"><g id="Layer_1-2" data-name="Layer 1"><path class="cls-1" d="M24.64,32c-.14-.05-.35-.11-.55-.2a2.38,2.38,0,0,0-3,.69,2.36,2.36,0,0,1-4-.6,2.31,2.31,0,0,0-2.4-1.51A2.46,2.46,0,0,1,12.14,27a2.42,2.42,0,0,0-.73-2.77,2.4,2.4,0,0,1,.68-4.09,2.31,2.31,0,0,0,1.46-2.57,2.39,2.39,0,0,1,3.15-2.41,2.54,2.54,0,0,0,3.11-.78,2.39,2.39,0,0,1,3.8.51,2.62,2.62,0,0,0,2.92,1.77,2.38,2.38,0,0,1,2.22,3.11A2.49,2.49,0,0,0,29.57,23,2.35,2.35,0,0,1,29,26.73a2.44,2.44,0,0,0-1.68,2.82A2.71,2.71,0,0,1,24.64,32Zm-.38-2.17c1,.19,1.12-.33,1.11-1a3.64,3.64,0,0,1,2.07-3.48c.8-.45,1-.87.27-1.61a3.6,3.6,0,0,1-1-3.91c.3-.88,0-1.23-.9-1.27a4,4,0,0,1-3.58-2.21c-.39-.74-.9-.79-1.48-.2a3.91,3.91,0,0,1-4.06,1c-.85-.24-1.3.06-1.27,1a3.6,3.6,0,0,1-2.07,3.47c-.89.49-.87.94-.19,1.63a3.67,3.67,0,0,1,.95,3.94c-.25.76-.09,1.24.8,1.23a3.89,3.89,0,0,1,3.75,2.32c.26.53.63.82,1.13.32C21.09,29.78,22.58,29.2,24.26,29.86Z"/><path class="cls-1" d="M35.8,33.17a16.94,16.94,0,0,0,2.65-7.46A18.27,18.27,0,0,0,25.86,6.1l-.63-.22c-.61-.19-1.1-.52-.91-1.24s.88-.73,1.52-.54A19.35,19.35,0,0,1,37.6,13.19a19.69,19.69,0,0,1,.67,19.55c-.19.37-.68.79-.36,1.19s.85.11,1.28.09.62-.12.93-.11a.94.94,0,0,1,1,.84.89.89,0,0,1-.85,1c-1.59.21-3.18.37-4.78.53-.54.06-.8-.32-1-.77-.46-1.35-.92-2.7-1.35-4.06-.2-.63-.24-1.31.57-1.53s1,.37,1.21.94S35.47,32.21,35.8,33.17Z"/><path class="cls-1" d="M19.14,3.23c-.57-.63-1-1.11-1.44-1.6a.89.89,0,0,1,0-1.32A.87.87,0,0,1,19,.3c1.16,1.1,2.29,2.25,3.42,3.38a.86.86,0,0,1,0,1.21C21.64,6.12,20.86,7.37,20,8.6c-.34.52-.8.92-1.44.47s-.43-1-.11-1.54c.13-.23.31-.44.42-.68.22-.46.91-.88.55-1.38s-1-.17-1.53-.12A18.42,18.42,0,0,0,2.25,20.24a20.14,20.14,0,0,0,.12,7.18c.14.73.15,1.43-.72,1.56s-1-.58-1.14-1.2C-2.13,16.84,5.8,5.2,17,3.57,17.64,3.48,18.28,3.37,19.14,3.23Z"/><path class="cls-1" d="M6.21,32.61a2.67,2.67,0,0,0-.4,0c-.38,0-.89-.23-1.1.21s.25.72.47,1a18.33,18.33,0,0,0,26.5,4,3.88,3.88,0,0,0,.31-.26c.57-.46,1.2-1,1.83-.2s-.1,1.21-.6,1.65a20.24,20.24,0,0,1-25.54.29,20.78,20.78,0,0,1-4.08-4.4c-.14-.21-.25-.53-.56-.49s-.32.39-.42.62-.08.35-.14.51c-.24.67-.4,1.55-1.38,1.24S.46,35.74.64,35.1c.34-1.25.72-2.48,1.08-3.73.16-.56.39-1,1.09-.92,1.29.1,2.58.12,3.87.26.7.08,1.73,0,1.63,1.11s-1,.77-1.7.8c-.14,0-.27,0-.4,0Z"/><path class="cls-1" d="M16.5,23.55a3.81,3.81,0,0,1,3.83-3.94,3.94,3.94,0,0,1,4,3.93,4.12,4.12,0,0,1-4,3.94A4,4,0,0,1,16.5,23.55Zm3.83-2.09a2.18,2.18,0,0,0-2,2.15,2.05,2.05,0,0,0,2.18,1.9,2,2,0,0,0,1.89-2A2.14,2.14,0,0,0,20.33,21.46Z"/></g></g></svg>