<svg xmlns="http://www.w3.org/2000/svg" viewBox="0 0 22.82 25.79"><defs><style>.cls-1{fill:#f9d026;}</style></defs><g id="Layer_2" data-name="Layer 2"><g id="Layer_1-2" data-name="Layer 1"><path class="cls-1" d="M22.8,11.46c0,.66,0,1.33,0,2s-.36,1-1.07.88c-.54-.09-1.1-.13-1.63-.27a.76.76,0,0,0-1.05.55c-.23.54,0,.8.38,1.07s.9.63,1.34,1,.64.87.13,1.38C19.93,19,19,20,18,20.9c-.5.5-1,.48-1.36-.13a2.42,2.42,0,0,0-3-1.51A24.35,24.35,0,0,1,9,19.32c-.2,0-.46.07-.6,0-1-.67-1.3.21-1.72.8l-.51.7a.77.77,0,0,1-1.32.13c-1-1-2-2-3-2.94A.78.78,0,0,1,2,16.67c.46-.34.93-.69,1.42-1a.75.75,0,0,0,.33-1.08c-.21-.49-.46-.66-1-.53s-1.14.19-1.71.29a.79.79,0,0,1-1-.84q0-2.09,0-4.17a.81.81,0,0,1,1-.86c.54.08,1.09.18,1.62.29a.85.85,0,0,0,1.1-.57c.22-.52.05-.79-.38-1.06s-1-.66-1.42-1a.75.75,0,0,1-.12-1.26q1.48-1.53,3-3A.74.74,0,0,1,6.12,2c.38.51.76,1,1.11,1.56s.64.37,1,.2.62-.4.52-.86-.21-1.14-.31-1.71C8.34.4,8.72,0,9.47,0c1.31,0,2.61,0,3.91,0,.71,0,1.07.38.95,1.12-.09.54-.14,1.1-.28,1.63a.73.73,0,0,0,.52,1,.76.76,0,0,0,1.09-.33c.31-.49.66-.95,1-1.42s.8-.61,1.25-.17c1,1,2.06,2,3.07,3.07.43.45.32.9-.17,1.26s-1,.71-1.5,1a.65.65,0,0,0-.29.94c.18.41.36.74.88.65s1.08-.21,1.63-.29c.92-.14,1.24.11,1.28,1,0,.64,0,1.28,0,1.92Zm-.93-.07v-.7c0-1.27,0-1.27-1.21-1.06-1.89.31-1.89.31-2.65-1.42A2.56,2.56,0,0,0,17.9,8a.83.83,0,0,1,.33-1.13c.47-.33.93-.68,1.42-1s.48-.45.12-.8c-.69-.67-1.36-1.35-2-2-.27-.28-.47-.26-.69.06-.32.49-.67.94-1,1.43a.93.93,0,0,1-1.33.37c-1.83-.81-1.83-.79-1.53-2.76,0-.14,0-.29.07-.43.12-.46-.09-.65-.53-.65H10c-.46,0-.61.24-.5.68.06.22.07.46.11.69C9.93,4,9.9,4,8.38,4.74,7.5,5.18,7,5,6.53,4.2,5.48,2.61,5.45,2.63,4.07,4s-1.44,1.44.25,2.64c.3.22.74.42.68.83a4.74,4.74,0,0,1-.87,2.14c-.38.5-1,.18-1.48.1C.94,9.45.94,9.44.94,11.12c0,2.2,0,2.21,2.22,1.9a1,1,0,0,1,1.28.72c.74,1.85.77,1.84-.84,3-.14.1-.28.21-.43.3-.42.24-.52.48-.12.86.66.61,1.29,1.25,1.91,1.9.36.39.58.3.88-.09,1.63-2.13,1.63-2.12.18-4.34a3,3,0,0,1-.19-.3,6.2,6.2,0,0,1,.33-6.89,6,6,0,0,1,6.27-2.66,6.4,6.4,0,0,1,4.23,10,8.4,8.4,0,0,0-1,1.63.73.73,0,0,0,.06.81c.44.57.86,1.16,1.27,1.76.27.4.51.39.82.06s.86-.87,1.29-1.3c1.09-1.08,1.09-1.08-.18-2s-1.3-.92-.69-2.43c0-.05.05-.1.07-.16.21-.88.76-1,1.58-.86C21.86,13.45,21.87,13.42,21.87,11.39Zm-10,5.15c0,2-.38,1.82,1.78,1.83a.72.72,0,0,0,.8-.61A8.7,8.7,0,0,1,15.87,15a5.25,5.25,0,0,0,.82-4.63,5.21,5.21,0,0,0-4.72-4A5.12,5.12,0,0,0,6.75,8.94a5.25,5.25,0,0,0,.18,6A13,13,0,0,1,8.4,17.82c.39,1.06,1.35.44,2,.51s.45-.53.49-.9c.1-.76-.15-1.18-1-1.05a1.24,1.24,0,0,1-.43,0c-.25,0-.47-.12-.49-.4s.22-.44.49-.49a1.25,1.25,0,0,1,.43,0c.85.11,1.06-.32,1-1.07a12.89,12.89,0,0,1,0-1.39c0-.33.06-.69.49-.69s.46.33.44.63c0,.61.26.81.83.81.34,0,.77,0,.75.51s-.44.5-.78.49c-.6,0-.84.26-.79.85C11.9,15.91,11.88,16.23,11.88,16.54Z"></path><path class="cls-1" d="M11.41,19.83c.82,0,1.63,0,2.44,0,.44,0,1.09,0,1,.62s-.24,1.41-1,1.45a45.41,45.41,0,0,1-4.95,0c-.75,0-1-.85-1-1.46s.61-.58,1.05-.6C9.79,19.81,10.6,19.83,11.41,19.83Z"></path><path class="cls-1" d="M11.46,22.25c.32,0,.64,0,.95,0,.49.05,1.09-.21,1.35.46a1.93,1.93,0,0,1-.56,2.08c-1.83,1.38-2.22,1.36-3.87-.22C8.76,24,9,23.32,9.08,22.7s.67-.44,1.09-.45S11,22.25,11.46,22.25Zm0,1h0c-.26,0-.52,0-.78,0s-.5,0-.6.26.11.47.32.63a4.5,4.5,0,0,1,.42.3c.64.62,1.1.11,1.59-.23.23-.16.58-.36.4-.67-.28-.51-.83-.22-1.27-.29C11.48,23.27,11.45,23.28,11.42,23.28Z"></path></g></g></svg>