<svg xmlns="http://www.w3.org/2000/svg" viewBox="0 0 22.21 22.2"><defs><style>.cls-1{fill:#f9d026;}</style></defs><g id="Layer_2" data-name="Layer 2"><g id="Layer_1-2" data-name="Layer 1"><path class="cls-1" d="M22.21,1.88a15.17,15.17,0,0,1-3,8.24,22.63,22.63,0,0,1-3,3.42.89.89,0,0,0-.33.67,8.59,8.59,0,0,1-3.24,6.6A11.16,11.16,0,0,1,11.08,22c-.21.13-.43.25-.67.08s-.23-.44-.15-.7a6.31,6.31,0,0,0,.34-3,1.89,1.89,0,0,0-.51-1c-1.74-1.8-3.49-3.58-5.3-5.31a2.69,2.69,0,0,0-2.26-.59,10.19,10.19,0,0,0-1.82.4.53.53,0,0,1-.61-.15.5.5,0,0,1,0-.62,10,10,0,0,1,6.6-4.84,2.86,2.86,0,0,1,.82-.06,1.71,1.71,0,0,0,1.53-.66,18.55,18.55,0,0,1,7.62-5A10.19,10.19,0,0,1,20.6,0C21.8.12,22.22.58,22.21,1.88ZM10.73,16.47l.38-.21a31.05,31.05,0,0,0,3.37-2.48,20.56,20.56,0,0,0,5.31-6.52c.13-.26.18-.45-.06-.68q-2-2-4-4a.64.64,0,0,0-.87-.12,24.16,24.16,0,0,0-9,8.87.38.38,0,0,0,.07.54l4.42,4.42A.45.45,0,0,0,10.73,16.47ZM21.16,2.19c0-.09,0-.23,0-.37.07-.69,0-.78-.7-.8a11.05,11.05,0,0,0-3.61.58c-.34.1-.49.21-.16.53q1.7,1.69,3.38,3.42c.27.28.37.19.47-.13A10.87,10.87,0,0,0,21.16,2.19ZM1.75,10.58a5.42,5.42,0,0,1,2.68.14.54.54,0,0,0,.79-.26,30.27,30.27,0,0,1,2-2.86c.08-.09.23-.16.15-.38A8.44,8.44,0,0,0,1.75,10.58Zm9.83,9.74c1.48-.61,3.48-4,3.22-5.49-1.05.84-2.13,1.61-3.24,2.33a.33.33,0,0,0-.14.45A5.26,5.26,0,0,1,11.58,20.32Z"></path><path class="cls-1" d="M7.82,17.2a2.55,2.55,0,0,1-1.29,2.22A22.65,22.65,0,0,1,2.3,21.33a1.09,1.09,0,0,1-1.2-.24A1.08,1.08,0,0,1,.86,19.9a21.34,21.34,0,0,1,2-4.33,2.65,2.65,0,0,1,3.08-1.09A2.81,2.81,0,0,1,7.82,17.2ZM5,15.4a1.49,1.49,0,0,0-1.43.81A26.18,26.18,0,0,0,1.86,20c-.1.26-.05.41.27.29a21,21,0,0,0,4-1.79,1.67,1.67,0,0,0,.63-2A1.69,1.69,0,0,0,5,15.4Z"></path><path class="cls-1" d="M13.54,12.61a.48.48,0,0,1-.38-.72,2,2,0,0,1,.43-.45,19.44,19.44,0,0,0,3.87-4.61c.2-.33.38-.84.88-.56s.17.74,0,1.07a20,20,0,0,1-4.23,5A.89.89,0,0,1,13.54,12.61Z"></path></g></g></svg>