<svg xmlns="http://www.w3.org/2000/svg" viewBox="0 0 28.43 28.43"><defs><style>.cls-1{fill:#f9d026;}</style></defs><g id="Layer_2" data-name="Layer 2"><g id="Layer_1-2" data-name="Layer 1"><path class="cls-1" d="M3.54,0A3.11,3.11,0,0,1,5.72,3.29c0,7.33,0,14.65,0,22,0,.3,0,.64-.32.74-.58.16-.66-.28-.75-.68a1.78,1.78,0,0,0-1.86-1.54,1.8,1.8,0,0,0,0,3.59H25.92a1.28,1.28,0,0,0,1.46-1.42q0-10.2,0-20.39c0-1-.35-1.7-1.55-1.65-.46,0-.92-.06-1.38-.06H7.72c-.21,0-.42,0-.63,0a.47.47,0,0,1-.47-.49A.44.44,0,0,1,7,2.84a5.52,5.52,0,0,1,.81-.06c5.9,0,11.79,0,17.68,0a2.78,2.78,0,0,1,2.89,1.79q0,11.66,0,23.33c0,.46-.1.55-.55.55q-12.87,0-25.73,0A3.41,3.41,0,0,1,0,26.27V2.15A3.41,3.41,0,0,1,2.15,0ZM4.61,23.25c0-.27,0-.45,0-.63q0-9.84,0-19.69A1.76,1.76,0,0,0,2.82,1,1.77,1.77,0,0,0,1,2.91q0,9.81,0,19.62c0,.22-.09.46.11.67A3.08,3.08,0,0,1,4.61,23.25Z"></path><path class="cls-1" d="M7.56,15.6c0-3,0-6,0-9,0-.91.07-1,1-1H24.81c.59,0,.84.24.84.82q0,9.2,0,18.38c0,.59-.28.82-.85.82-1.69,0-3.37,0-5.05,0-.37,0-.79,0-.8-.5s.4-.56.8-.55c1.41,0,2.82,0,4.23,0,.47,0,.62-.16.62-.62,0-2.08,0-4.17,0-6.25,0-.53-.2-.66-.67-.63s-.93,0-1.39,0-.72,0-.74-.5.38-.53.74-.55,1,0,1.46,0,.6-.13.6-.58c0-2.71,0-5.43,0-8.14,0-.45-.16-.6-.59-.59H18.69c-.47,0-.63.18-.61.63,0,.78,0,1.56,0,2.34,0,.4-.11.75-.57.75S17,10,17,9.69c0-.8,0-1.6,0-2.4,0-.44-.16-.6-.59-.6H9.22c-.47,0-.61.2-.61.64,0,2.7,0,5.39,0,8.09,0,.48.2.61.64.6q3.57,0,7.14,0c.46,0,.66-.15.62-.63a3.14,3.14,0,0,1,0-.75.49.49,0,0,1,.52-.46.46.46,0,0,1,.47.43,6.77,6.77,0,0,1,0,2c-.07.47-.47.46-.84.46H10.1c-1.48,0-1.48,0-1.48,1.52,0,1.76,0,3.53,0,5.3,0,.52.16.69.69.69,2.31,0,4.63,0,6.94,0a.81.81,0,0,0,.93-.7,5.27,5.27,0,0,1,4.63-4.05c.7-.08.9.09,1,.79a11.24,11.24,0,0,1,0,2.46c0,.32-.13.6-.5.61s-.46-.29-.48-.61-.05-.93-.06-1.39c0-.74-.12-.81-.83-.55a4.08,4.08,0,0,0-2.8,3.5c-.13.89-.2,1-1.11,1H8.65c-1,0-1.09-.11-1.09-1.14C7.55,21.53,7.56,18.57,7.56,15.6Z"></path></g></g></svg>