<svg xmlns="http://www.w3.org/2000/svg" viewBox="0 0 27.2 27.25"><defs><style>.cls-1{fill:#f9d026;}</style></defs><g id="Layer_2" data-name="Layer 2"><g id="Layer_1-2" data-name="Layer 1"><path class="cls-1" d="M13.63,0A13.63,13.63,0,1,1,0,13.62,13.61,13.61,0,0,1,13.63,0ZM1.33,13.59a12.28,12.28,0,1,0,24.55.06,12.28,12.28,0,1,0-24.55-.06Z"></path><path class="cls-1" d="M13.68,17.06a3.35,3.35,0,0,1-3.44-3.43,3.45,3.45,0,0,1,6.89,0A3.38,3.38,0,0,1,13.68,17.06Z"></path><path class="cls-1" d="M21.66,21.82c-.33,0-.55-.19-.79-.32-1.75-1-3.49-2-5.25-2.94-.43-.24-.56-.42-.15-.82.73-.7,1.42-1.44,2.12-2.18.23-.24.44-.38.66,0q1.7,3,3.41,6.06A.6.6,0,0,1,21.66,21.82Z"></path><path class="cls-1" d="M5.75,5.25l1.73,1,4.4,2.45c.38.21.48.39.12.73-.75.72-1.47,1.46-2.2,2.2-.23.24-.42.31-.62,0L5.71,5.45S5.73,5.37,5.75,5.25Z"></path></g></g></svg>