<svg xmlns="http://www.w3.org/2000/svg" viewBox="0 0 46.05 24.22"><defs>
<style>.cls-1{fill:#fff;}</style>
</defs>
<g id="Layer_2" data-name="Layer 2"><g id="Layer_1-2" data-name="Layer 1">
<path class="cls-1" d="M27.85,21.23a28.77,28.77,0,0,0,9.54-4.61c.67-.47.14-.68-.19-.93a28.43,28.43,0,0,0-7.77-4c-.37-.13-.73-.25-1.09-.39-.67-.26-1.15-.7-.93-1.47s.95-.93,1.68-.72a31.06,31.06,0,0,1,11.27,6.13c.83.7.73,1.45-.28,2.26a28.83,28.83,0,0,1-13.63,6.45c-8,1.27-14.79-1.7-20.89-6.6-.94-.76-.9-1.49,0-2.25A29.68,29.68,0,0,1,20,8.38a7.55,7.55,0,0,1,8,3.53,7.35,7.35,0,0,1,.1,8.71A3.6,3.6,0,0,0,27.85,21.23ZM17,20.86c.08-.63-.3-1-.42-1.53A4.72,4.72,0,0,1,18,14.25a4.65,4.65,0,0,1,5-1,4.21,4.21,0,0,1,2.58,3.85A3.67,3.67,0,0,1,23,20.31c-.82.24-1.73.39-2.1-.61s.48-1.36,1.31-1.63a1.28,1.28,0,0,0,.46-2.3A2,2,0,0,0,21,15.28a2.53,2.53,0,0,0-2.22,2.06,3.26,3.26,0,0,0,1.79,3.31,4.21,4.21,0,0,0,4.62-.49A4.36,4.36,0,0,0,27,15.75c-.58-3.64-3.38-5.6-7.13-5a27.4,27.4,0,0,0-11.3,4.89c-.67.47-.49.72,0,1.1A30.29,30.29,0,0,0,14.37,20,7.63,7.63,0,0,0,17,20.86Z"/><path class="cls-1" d="M46.05,8.43a2,2,0,0,1-.27.63c-1,1.21-2.07,2.41-3.15,3.57a1,1,0,0,1-1.5,0A1,1,0,0,1,41,11.08c1-1.17,2-2.32,3.07-3.46a1.05,1.05,0,0,1,1.29-.27A1.17,1.17,0,0,1,46.05,8.43Z"/><path class="cls-1" d="M1.05,7.23a1.22,1.22,0,0,1,1,.41Q3.52,9.32,5,11a1.08,1.08,0,0,1,0,1.61,1.07,1.07,0,0,1-1.69-.14c-1-1.11-2-2.25-2.93-3.41A1.07,1.07,0,0,1,.17,7.79,1.14,1.14,0,0,1,1.05,7.23Z"/><path class="cls-1" d="M23.25,3c0-.65-.05-1.3,0-1.93A1.08,1.08,0,0,1,24.35,0,1.06,1.06,0,0,1,25.5,1a14,14,0,0,1,0,4.24,1.05,1.05,0,0,1-1,1,1.07,1.07,0,0,1-1.14-1,19.8,19.8,0,0,1,0-2.18Z"/><path class="cls-1" d="M18.1,5.23c0,.84-.24,1.29-.86,1.46A1,1,0,0,1,16,6.06a18.71,18.71,0,0,1-1.09-4.22A1.06,1.06,0,0,1,15.8.62,1,1,0,0,1,17,1.33C17.45,2.68,17.78,4.05,18.1,5.23Z"/><path class="cls-1" d="M32.91,2.27c-.28,1.06-.6,2.4-1,3.71a1,1,0,0,1-1.34.7,1.08,1.08,0,0,1-.82-1.3c.29-1.34.64-2.68,1-4A1,1,0,0,1,32.12.67C32.76.85,33,1.36,32.91,2.27Z"/><path class="cls-1" d="M8.39,3.3a1.16,1.16,0,0,1,1.06.64c.61,1.08,1.21,2.18,1.79,3.29a1.12,1.12,0,0,1-.44,1.66,1,1,0,0,1-1.52-.52C8.63,7.25,8,6.13,7.45,5A1.08,1.08,0,0,1,8.39,3.3Z"/><path class="cls-1" d="M40.18,4.75a15.56,15.56,0,0,1-2.4,4.19.91.91,0,0,1-1.29,0,1,1,0,0,1-.34-1.27,22.12,22.12,0,0,1,2-3.74,1,1,0,0,1,1.24-.42A1.21,1.21,0,0,1,40.18,4.75Z"/>
</g></g></svg>