<svg xmlns="http://www.w3.org/2000/svg" viewBox="0 0 29.59 45.18"><defs><style>.cls-1{fill:#012169;}</style></defs><g id="Layer_2" data-name="Layer 2"><g id="Layer_1-2" data-name="Layer 1"><path class="cls-1" d="M18.57,45.17c-2.43,0-4.85,0-7.28,0-.76,0-1.09-.28-1.12-1.06a7.07,7.07,0,0,0-1.95-4.25,51.05,51.05,0,0,1-7.65-13A9.44,9.44,0,0,1,.1,25.37,2.47,2.47,0,0,1,1,22.64a2.81,2.81,0,0,1,3-.32,8.32,8.32,0,0,1,2.39,1.83c.33.31.56,1,1.15.7s.31-.87.31-1.34c0-4,0-8.08,0-12.12a3.32,3.32,0,1,1,6.64.23c0,1.53,0,3.07,0,4.6,0,.9.18,1.05,1,.86a3.07,3.07,0,0,1,3.23,1.17.88.88,0,0,0,1.19.28,3.16,3.16,0,0,1,4.24,1.7,1,1,0,0,0,1.36.66,3.28,3.28,0,0,1,4.06,3.31,43.93,43.93,0,0,1-1.75,14.11A24.24,24.24,0,0,0,27,44c0,.88-.38,1.15-1.21,1.14C23.36,45.15,21,45.17,18.57,45.17ZM9.22,20.76h0V30c0,.58-.09,1.17-.84,1.17s-.78-.58-.76-1.13a3.62,3.62,0,0,0-.46-1.82A14.6,14.6,0,0,0,5,25.13,5.2,5.2,0,0,0,3.31,23.8a1.43,1.43,0,0,0-1.49.06c-.47.34-.39.86-.29,1.35a4.89,4.89,0,0,0,.29,1,47.38,47.38,0,0,0,7.8,13.12,7,7,0,0,1,1.93,3.61.79.79,0,0,0,.9.73H24.57c.57,0,.85-.24.88-.82a23.24,23.24,0,0,1,.81-5,41.62,41.62,0,0,0,1.67-13.59c-.08-1.23-.6-1.81-1.73-1.81s-1.69.61-1.72,1.82c0,.29,0,.58,0,.86,0,.53-.14,1-.79,1s-.79-.48-.8-1c0-1.1,0-2.2,0-3.29,0-1.3-.57-1.94-1.67-2s-1.8.65-1.86,1.92c0,.69,0,1.38,0,2.08,0,.54-.1,1-.77,1s-.74-.52-.74-1.05c0-1.1,0-2.2,0-3.29,0-1.26-.64-1.91-1.75-1.92s-1.76.63-1.78,1.95c0,.78,0,1.56,0,2.33a.7.7,0,0,1-.73.72.71.71,0,0,1-.78-.65,7.17,7.17,0,0,1-.06-1c0-3.43,0-6.87,0-10.3a1.67,1.67,0,0,0-.87-1.74,1.72,1.72,0,0,0-2.57,1.63C9.21,14.58,9.22,17.67,9.22,20.76Z"/><path class="cls-1" d="M.49,11.37C.5,5,4.77.45,10.31,0a10.59,10.59,0,0,1,10,15.37,4.39,4.39,0,0,1-.61.93.63.63,0,0,1-.87.08.61.61,0,0,1-.26-.75,8.1,8.1,0,0,1,.39-.78,9.08,9.08,0,0,0-.44-9.25,8.65,8.65,0,0,0-8-4.14A9,9,0,0,0,2.25,8.24a9.18,9.18,0,0,0,3.7,10,5.5,5.5,0,0,1,.5.34.63.63,0,0,1,.2.91.65.65,0,0,1-.9.28,4.94,4.94,0,0,1-.88-.54A10.26,10.26,0,0,1,.49,11.37Z"/><path class="cls-1" d="M17.92,11.18a6.24,6.24,0,0,1-.49,2.54c-.18.46-.4,1-1,.79s-.51-.77-.33-1.3A5.7,5.7,0,0,0,14.3,6.58a5.45,5.45,0,0,0-6.54-.09,5.74,5.74,0,0,0-1.88,6.74c.09.22.19.42.29.63.24.45.34.91-.21,1.18s-.86-.12-1.08-.56A7.08,7.08,0,0,1,11.8,4,7.07,7.07,0,0,1,17.92,11.18Z"/></g></g></svg>