<svg xmlns="http://www.w3.org/2000/svg" viewBox="0 0 35.56 51.95"><defs><style>.cls-1{fill:#012169;}</style></defs><g id="Layer_2" data-name="Layer 2"><g id="Layer_1-2" data-name="Layer 1"><path class="cls-1" d="M0,26.05V6.32C0,2.5,1.78.34,5.52.19a163,163,0,0,1,17,.06,5.06,5.06,0,0,1,4.94,5.19c.08,7,0,14,0,21,0,.8-.17,1.64-1.17,1.68s-1.25-.84-1.25-1.72q0-10,0-20C25,3.56,24,2.49,21.16,2.48H6.33c-2.86,0-3.89,1-3.89,3.91V45.84c0,2.63,1,3.67,3.64,3.68H20.91a9.42,9.42,0,0,1,1.3,0,1.05,1.05,0,0,1,1,1,1.08,1.08,0,0,1-.84,1.19,5.24,5.24,0,0,1-1.42.15c-4.95,0-9.89,0-14.83,0-4,0-6.12-2.18-6.13-6.17Z"/><path class="cls-1" d="M35.56,38.88a9.53,9.53,0,0,1-9.42,9.33,9.39,9.39,0,0,1,.12-18.78A9.52,9.52,0,0,1,35.56,38.88ZM25.34,42a2.45,2.45,0,0,0,.51-.3l4.79-4.77c.31-.31.24-.58-.05-.87s-.68-.57-1.11-.16l-1.84,1.81c-2.14,2.14-2.14,2.14-4.4.16-.44-.39-.81-.69-1.33-.14s-.18.85.18,1.21c.84.85,1.68,1.7,2.54,2.54A5.93,5.93,0,0,0,25.34,42Z"/><path class="cls-1" d="M16.36,45.11a2.55,2.55,0,0,1-2.67,2.58A2.66,2.66,0,0,1,11,45.05a2.82,2.82,0,0,1,2.71-2.65A2.71,2.71,0,0,1,16.36,45.11Z"/><path class="cls-1" d="M13.67,6.39c-.9,0-1.81,0-2.71,0-.74,0-1.34-.44-1.31-1.24S10.3,4,11.05,4c1.81,0,3.63,0,5.44,0A1.15,1.15,0,0,1,17.78,5.1c.06.84-.51,1.22-1.24,1.27C15.59,6.44,14.63,6.39,13.67,6.39Z"/></g></g></svg>