<svg xmlns="http://www.w3.org/2000/svg" xmlns:xlink="http://www.w3.org/1999/xlink" viewBox="0 0 156.37 139.26"><defs><style>.cls-1{isolation:isolate;}.cls-2{fill:url(#radial-gradient);}.cls-3{fill:#576065;opacity:0.2;mix-blend-mode:multiply;}.cls-4{fill:#b3e4fa;opacity:0.6;mix-blend-mode:screen;}.cls-5,.cls-8{fill:#22292c;}.cls-5,.cls-6,.cls-7{opacity:0.7;}.cls-6{fill:#0f1619;}</style><radialGradient id="radial-gradient" cx="5180.39" cy="-6039.46" r="367.39" gradientTransform="matrix(-0.51, 0, 0, 0.51, 2734.26, 3005.67)" gradientUnits="userSpaceOnUse"><stop offset="0" stop-color="#e3f3fc"></stop><stop offset="0.22" stop-color="#aeb7bd"></stop><stop offset="0.61" stop-color="#8ca4af"></stop><stop offset="1" stop-color="#393b3d"></stop></radialGradient></defs><g class="cls-1"><g id="Layer_2" data-name="Layer 2"><g id="Layer_1-2" data-name="Layer 1"><path class="cls-2" d="M15.28,123.93c7.29,4.77,16.33,7.71,24.77,9.69a68.32,68.32,0,0,0,30.51.15c6-1.26,11.89-2.06,17.84-.1,4.41,1.45,8.64,3.47,13.12,4.68,8.66,2.35,16.9.25,21.94-7.47,2.62-4,4.44-8.67,8-12,3.74-3.5,6.88-7.49,10.41-11.18C148.31,101,154.93,92.54,156,83c1-9.35.19-19.36-5.25-27.35-4.57-6.72-10.84-11.91-15.25-18.6-.14-.59-.25-1.18-.34-1.79-.43-3.15-.82-6.62-2.85-9.21a39.24,39.24,0,0,0-17.22-12.84c-4.16-1.5-8.59-2.15-12.72-3.68S94.22,5.83,90.18,3.94C83.25.68,74.76-1,67.17.59A32,32,0,0,0,55,5.91c-3.67,2.56-6.66,6.14-10.69,8.19-8.47,4.3-18.3,3.56-26.67,8.31C10.49,26.49,3.73,33,1.29,41.05c-2.91,9.64.43,19.66.66,29.46C2.34,88.07-2.15,112.53,15.28,123.93Z"></path><path class="cls-3" d="M15.58,124.28C22.9,129,32,131.89,40.4,133.83a68.36,68.36,0,0,0,30.52,0c6-1.29,11.87-2.13,17.84-.2,4.41,1.43,8.65,3.42,13.14,4.62,8.67,2.29,16.89.14,21.89-7.6,2.6-4,4.4-8.7,7.92-12,3.72-3.52,6.84-7.53,10.35-11.24,6.42-6.79,13-15.24,14-24.82,1-9.36.08-19.37-5.39-27.33-4.61-6.7-10.91-11.85-15.36-18.51a18.21,18.21,0,0,1-.34-1.79c-.45-3.15-.87-6.61-2.91-9.19A39.21,39.21,0,0,0,114.74,13c-4.17-1.47-8.6-2.1-12.74-3.61S93.87,5.74,89.82,3.87C82.87.66,74.38-.94,66.79.65A32.14,32.14,0,0,0,54.67,6C51,8.62,48,12.22,44,14.28c-8.45,4.35-18.29,3.66-26.63,8.46C10.25,26.86,3.53,33.37,1.14,41.47c-2.86,9.66.54,19.66.81,29.46C2.45,88.48-1.91,113,15.58,124.28Zm20.82-86c2.92-2.09,6.51-2.87,9.88-3.93a34.94,34.94,0,0,0,12.27-7.18.57.57,0,0,1,.81.8,9.65,9.65,0,0,0-1.94,3.07c2.14-.24,3.22-1.88,5.16-2.77,1.23-.56,2.08.45,2.62,1.42,1,1.91,1.23,4.21,1.93,6.25.33,1,1.32,1.2,1.55.09a14,14,0,0,0,.19-2.15,12.2,12.2,0,0,1,.34-3,.57.57,0,0,1,.83-.34c3.55,2.52,5.86,6.85,10,8.37a4.73,4.73,0,0,0,0-.52,67.43,67.43,0,0,0-3.92-6.61c-.93-1.49-2.68-5.17-.48-6.47.84-.49,2.07-.09,2.95.08q2.7.52,5.4,1c3.78.64,8.42,1.5,12.19.21-2-3.6-7.2-4-10.65-5.72a.55.55,0,0,1-.26-.64c.82-2,4.45-5.39,2.64-7.65-2-2.48-7.29-.4-9.25,1.05-.52.38-1-.32-.78-.78s.37-.87.56-1.31c-1.91,1.17-3.85,2.29-5.79,3.4a.57.57,0,0,1-.78-.2,22.48,22.48,0,0,1-1.62-5,43.69,43.69,0,0,1-.53,5.09c-.11.61-.91.47-1.1,0-.86-2.22-2.19-7-.78-9.24,2-3.2,6.4-3.55,9.83-3.36,10.14.56,18.39,6.28,27.5,10,.56.23.55,1.13-.14,1.12-1,0-2.05-.09-3.06,0a24.07,24.07,0,0,0,4.86,2.09.58.58,0,0,1,.26,1,15.67,15.67,0,0,0-1.56,1.6,9.79,9.79,0,0,1,2.95.27c2.52.68,3.44,3.83,5.92,4.71a.58.58,0,0,1,.4.7c-.69,2.56-1.7,5-2.48,7.53,1.45-1.37,2.63-3.11,4.5-3.87,1.45-.6,4.2,1.09,5.47,1.7,4.55,2.21,5.6,7.73,6.49,12.44.63-2.52,1.17-5.05,2.85-7.13.32-.4,1-.07,1,.4,0,3.82-.53,7,3,9.39,2.32,1.6,4.87,2.9,6.9,4.88,3.88,3.77,7.38,8.17,9.16,13.34a35.81,35.81,0,0,1,1.57,6.6c1.11,7.72,0,16.53-4.73,22.94-3.64,4.91-8.71,9-13,13.28a57.28,57.28,0,0,1-5.14,5c-1.93,1.48-4,.88-6.17.81-3-.09-3.15,3.92-5.77,4.32-2,.3-3.82-1.71-5.59-2.45-3.57-1.49-7.49-.93-11.06.18-2.61.81-5,2.56-7.74,2.78-4.64.37-4.81-7.75-5.51-10.54C86.88,99,80.72,91.5,74.35,89.51a.57.57,0,0,1,0-1.1c5.22-1.69,10.33.86,15.09,3-2.81-6.92-9.66-11.1-16.78-12.65-2.52-.56-4-1.68-4.52-4.23-.51-2.25-.6-4.13-2.74-5.55-1.49-1-3.18-1.57-4.67-2.61-2.4-1.67-3.79-4.64-5.15-7.13-1.79-3.26-3.36-6.66-5.41-9.77a16.83,16.83,0,0,0-7.94-6.24c-2.23-1-4.72-1.95-6-4.12A.58.58,0,0,1,36.4,38.32Z"></path><path class="cls-4" d="M132.31,42.64c2.63,2,4.66,4.52,7.34,6.48a37.45,37.45,0,0,1,6,5.48,28.51,28.51,0,0,1,6.75,16.68,29.68,29.68,0,0,1-4.74,18.59,55.35,55.35,0,0,1-6.9,8.22c-1.94,2.06-3.65,4.41-6,6-.18.11-.57-.25-.41-.43,8.07-8.83,16.15-17.76,16.62-30.34a27.45,27.45,0,0,0-6.24-18.26,42.59,42.59,0,0,0-6.38-6c-2.28-1.89-3.89-4.35-6.13-6.24C132,42.67,132.13,42.51,132.31,42.64Z"></path><path class="cls-5" d="M105,14a14.09,14.09,0,0,0,3.92,1.16,14.28,14.28,0,0,0-1.39.48c-.15,0,.07.27.17.26a6.13,6.13,0,0,1,1.58-.21l.31,0,.14.14A11,11,0,0,0,107,17c-.25.12.13.54.33.49.72-.18,1.43-.43,2.16-.56.29-.05.64-.05,1-.11a1.49,1.49,0,0,0,.23.27,37.65,37.65,0,0,0,3.5,2.87c.42.35.84.7,1.27,1s1,.75,1.47,1.12a17.22,17.22,0,0,0-.67,1.63c-.47,1.23-.65,2.52-1,3.77-.06.18.32.53.46.33a21.16,21.16,0,0,0,1.8-3.35c.21-.43.53-.9.8-1.37l.38.27c-.06.14-.12.29-.18.42a12.63,12.63,0,0,0-.69,1.66c-.07.21.34.52.46.29.29-.58.62-1.11.95-1.65l.15-.23A36.37,36.37,0,0,0,126,27.76a3.37,3.37,0,0,1,0,.55,7.92,7.92,0,0,0,0,1.82,9.37,9.37,0,0,0,.43,3.08c.1.21.63.41.53,0a7,7,0,0,1,.17-2.23,17,17,0,0,1,.26-2q.07-.33.12-.63a9.46,9.46,0,0,0,2.32.57,2.35,2.35,0,0,0,.07.54,7.68,7.68,0,0,1,.5,1.88c0,.18.46.55.53.26.14-.66-.11-1.33,0-2a5.22,5.22,0,0,0,0-1.37s0,0,0,0c-.08-2.08-2.17-4.26-4.13-5.92a19.85,19.85,0,0,0-4.11-3.43A56.33,56.33,0,0,0,111.86,14c-.68-.25-2.74-1-3.15-.13-1.29-.26-3.14-.06-3.71-.26C104.67,13.45,104.76,13.84,105,14Zm6.54.82c1.71.63,3.43,1.25,5.12,1.92a31,31,0,0,1,12.24,8.77l.06.08a7.57,7.57,0,0,1,0,1,44,44,0,0,0-7-5.36c-.71-.5-11.18-6.42-11.48-5.85,0-.09-.1-.22-.2-.22C109.91,14.55,110.11,14.27,111.49,14.78Z"></path><path class="cls-5" d="M106,130.06c3.2-.9,9.82-4.24,9.46-8.35-.16-1.89-2.14-2.23-4.15-2l-.06,0c-4.1-1.07-9.57,3-10.44,7.1C100,130.42,102.92,130.94,106,130.06Z"></path><path class="cls-5" d="M24.21,57c3.15,2.06,6.36,3.78,8.64,6.92,2.11,2.89,2.74,6,3.75,9.35,0,.18-.09.36-.13.56-.16.81-.28,1.63-.37,2.46a8.83,8.83,0,0,0-1.4-.69c-1.07-.42-3-1.44-4.1-.75-.08.05,0,.15,0,.18a3.91,3.91,0,0,0,.65.32c.07,0,.06-.07,0-.09-.87-.44.92.14.73.08a6.3,6.3,0,0,1,.72.28c.45.2.89.43,1.35.61A5.56,5.56,0,0,1,36,77.26h0c-.07.9-.08,1.8-.06,2.71a5,5,0,0,0-1.79-.42c-.33,0,0,.38.13.43.34.09.7.15,1,.27a4,4,0,0,1,.66.31,23.19,23.19,0,0,0,1.84,8.12c2.09,4.82,6.4,7.72,11.32,9.36,0,.09,0,.18-.08.28-.11.38-.3.76-.38,1.15a7,7,0,0,1-.56,2.06c-.1.17.29.47.43.32a8.39,8.39,0,0,0,1.17-2,4.16,4.16,0,0,0,.57-1.43,42.28,42.28,0,0,0,11.63,1.5,12.53,12.53,0,0,0,5.84-1.32,7.23,7.23,0,0,1,1,1c.16.22.35.54.64.6a.14.14,0,0,0,.13,0h0c.08-.14-.06-.25-.13-.35a2.33,2.33,0,0,1-.31-.5,2.37,2.37,0,0,0-.94-1,5.79,5.79,0,0,0,1.58-1.5,4.78,4.78,0,0,1,.93.47,7.13,7.13,0,0,1,.84.81c.45.5.88,1,1.37,1.5.19.19.49,0,.28-.2-.64-.71-1.12-1.52-1.77-2.21a4.12,4.12,0,0,0-1.29-1,5.64,5.64,0,0,0,.59-2.38,12.54,12.54,0,0,0,0-1.37,14,14,0,0,1,6.56,4.07c.8.92,1.74,3.34,3,3.83.17.07.15-.12.07-.2-.82-.76-1.13-2.51-1.84-3.45a19.24,19.24,0,0,0-3-3.2,12.52,12.52,0,0,0-4.85-2.32,21.11,21.11,0,0,0-4.31-9L66.06,82a13.72,13.72,0,0,1,3.37-.55,23,23,0,0,1,9.66,1.8c.2.08.16-.17,0-.24A20.87,20.87,0,0,0,70,80.44a13.45,13.45,0,0,0-4.94.36c-.76-.87-1.57-1.68-2.41-2.47a4.47,4.47,0,0,0,.29-.35,9,9,0,0,1,1-1.23c.13-.12-.17-.4-.3-.31a7.59,7.59,0,0,0-1.09,1c-.13.13-.26.26-.4.38l-.63-.59.22-.27c.41-.5.81-1,1.21-1.51A15.71,15.71,0,0,1,64.27,74a10.52,10.52,0,0,0,.92-.85c.13-.17-.23-.49-.39-.33a11.47,11.47,0,0,1-1.26.9,7.93,7.93,0,0,0-1.26,1.2c-.38.44-.79.85-1.19,1.28-.12.13-.26.25-.39.38a50.1,50.1,0,0,0-6.78-4.73,26.41,26.41,0,0,0-5.49-2.56,15.21,15.21,0,0,0,0-4.18c-.31-2-.74-5-2.43-6.35-.17-.14-.43,0-.24.19,1.26,1.4,1.62,4.78,1.63,6.54a14.7,14.7,0,0,1-.45,3.4,12.74,12.74,0,0,0-3.66-.25,6.89,6.89,0,0,0-4.43,1,19.11,19.11,0,0,0-1.09-4.71c-.05-.13-.38-.27-.31-.05a22.81,22.81,0,0,1,.71,5.37,4.55,4.55,0,0,0-.69.9C36.74,64.36,30.19,59,24.26,56.6,23.94,56.47,24,56.86,24.21,57Zm14,17.9c.12-.48.29-1.05.49-1.63.27,1.75.19,3.7.58,5.4a18.63,18.63,0,0,0,2.23,6.21c1.86,2.89,6.06,5.17,8.95,6.89s6.55,3.89,10.18,3.7c2.06-.12,6.73-.38,8.41-2.36l.19-.14c-.53,4.54-4.85,5.77-9,5.42-7.81-.68-18.4-1.91-21.19-10.59C37.75,83.67,37.1,79.11,38.22,74.87Z"></path><path class="cls-5" d="M8.94,38.18c.7,2.93,1.73,5.61,2,8.66,0,.19.44.47.45.17a19.59,19.59,0,0,0-.63-7A4.08,4.08,0,0,0,12,40a10.33,10.33,0,0,0,1.08,2.12,15.75,15.75,0,0,1,1.21,2.84c.05.14.47.37.43.11a10.2,10.2,0,0,0-2-5.2A12.12,12.12,0,0,0,15,39c.45-.21.89-.45,1.34-.7a6.84,6.84,0,0,1,.47.72c.32.58.63,1.17,1,1.73.09.15.44.22.31,0-.45-.81-.78-1.84-1.31-2.68.78-.45,1.56-.93,2.32-1.46a7.51,7.51,0,0,1,.65.62c.83.88,1.57,1.83,2.31,2.78.12.16.37.1.23-.1a29.82,29.82,0,0,0-2.49-3.31l-.27-.29c.65-.47,1.29-1,1.9-1.5a17.75,17.75,0,0,1,2.95,1.72c.72.58,1.46,1.16,2.15,1.78.2.19.23.25.48.25s0-.18,0-.21c-.57-.29-1.08-1-1.56-1.46a13.66,13.66,0,0,0-1.63-1.3c-.6-.4-1.23-.82-1.87-1.2l.84-.8a7.84,7.84,0,0,0,1.09.62c.29.13.17-.28,0-.36a5,5,0,0,1-.83-.52l.33-.33c.43.31.92.6,1,.39s0-.14-.11-.17c.09,0-.07-.05-.08-.05a1.22,1.22,0,0,1-.19-.12l-.35-.3a19.07,19.07,0,0,0,1.73-2.14,18.09,18.09,0,0,0,1.9-3.17,19.41,19.41,0,0,0,4.67.87c.18,0,0-.27-.12-.28a36.71,36.71,0,0,1-4.3-1.34,2.38,2.38,0,0,0-.15-1.92c3,.85,6.87,1.45,9.2-.39.11-.09-.12-.25-.19-.25a31.82,31.82,0,0,1-6.39.28,29,29,0,0,0-4.2-.73c-1.78-.7-4.58.29-6,1A21.24,21.24,0,0,0,11.2,33c-.68,1.17-2.31,3.29-2.25,4.94A.46.46,0,0,0,8.94,38.18ZM10.72,37a25.82,25.82,0,0,1,6.81-9.14,13.92,13.92,0,0,1,6.18-3c1.56-.28,2,.35,2,1.22-1.44-.89-7.09,3.2-8,3.94-.56.46-6.28,6.22-6.14,8l-.09,0a.21.21,0,0,0-.08.26c0,.08.06.22.08.34C10.58,38.68,10.09,38.31,10.72,37Z"></path><path class="cls-5" d="M50.93,26.74c3.37-1.26,6.65-2.65,10-3.76a2.31,2.31,0,0,1,.91-2l-.59-.16c-2.58-.59-5.23-.89-7.75-1.73-.16-.05-.34-.46-.07-.39,2.21.56,4.51.74,6.75,1.09.84.13,1.68.29,2.52.45a20,20,0,0,1,2.07-1.37c-.32-.23-.62-.5-.82-.64a15.58,15.58,0,0,1-2.58-1.82c-.17-.17,0-.34.16-.18,1.14,1,2.63,1.46,3.88,2.3a5.34,5.34,0,0,1,.7-.27L66,18c-.32-.38-.65-.76-1-1.16s.13-.35.3-.14c.37.47.79.89,1.18,1.35a9.32,9.32,0,0,1,.91-.23A13.63,13.63,0,0,1,70,17c0-.92.14-1.91.18-2.71.1-1.85-.15-3.8.35-5.6,0-.18.35.06.33.21A20.84,20.84,0,0,0,71,14c.06.94,0,1.9.07,2.84q.93-.15,1.86-.21a12.37,12.37,0,0,1,.91-2.08c.09-.23.48.06.42.26-.11.37-.25.73-.4,1.1-.08.22-.15.45-.23.68a15.3,15.3,0,0,1,3.54.25l.72-.53c.93-.65,2.43-1.23,2.93-2.31.11-.22.49.07.43.26-.33,1-1.56,1.91-2.37,2.57-.15.12-.29.26-.44.4a3.72,3.72,0,0,1,.88.51c.56-.16,1.18-.22,1.73-.33,1.24-.24,2.47-.34,3.69-.68.13,0,.35.21.21.26a21.27,21.27,0,0,1-2.82.74c-.77.15-1.55.46-2.33.61.38.88-.49,1.86-1.63,2.68.14.05.29.1.42.16a3.94,3.94,0,0,1,1.54.85c.15.17,0,.3-.18.21a11.1,11.1,0,0,0-2.4-.8l-.5.31c1,.41,2,.86,3,1.23,2.08.78,4.44,2.1,6.61,2.55.16,0,.38.38.11.35a29.28,29.28,0,0,1-5-1.58c-1.93-.62-3.86-1.25-5.75-2-.23.12-.46.22-.65.31a20.94,20.94,0,0,1-3.84,1.23c.14.44.26.89.37,1.34A34.12,34.12,0,0,1,72.77,29c0,.31-.5,0-.54-.15A43.37,43.37,0,0,0,70.62,24a23.18,23.18,0,0,1-3.71.35c-.18.32-.43.62-.62.93-.1.15-.43-.12-.37-.27s.19-.45.29-.66a2.81,2.81,0,0,0-.29,0,3.37,3.37,0,0,0-.45,0c-.16.15-.33.29-.47.43-.51.49-1,1-1.57,1.44-.2.17-.64-.2-.47-.41.41-.47.81-1,1.19-1.45a6.91,6.91,0,0,1-2-.29c-1.3.29-2.6.54-3.86.89-2.37.67-4.69,1.57-7.07,2.17C51,27.16,50.73,26.81,50.93,26.74Z"></path><path class="cls-6" d="M15.59,118.24c1.66,2.92,6.05,5.52,8.94,7.07,3.84,2.06,8.24,4,12.62,4.47,1.37.15,5.37.34,4.05-2.08A9.07,9.07,0,0,0,37,124.22a48.76,48.76,0,0,0-6.8-3.8c-2.19-1.07-4.42-2.08-6.69-3C22.07,116.94,12.88,113.48,15.59,118.24Z"></path><g class="cls-7"><path class="cls-8" d="M118.5,64.14c2.6,1,6.22,2.52,9.07,2.57,1.63,0,3.3-.22,4.93-.33.51,0,.9,0,1.23-.08,0,.42,0,.84.05,1.26a9.51,9.51,0,0,0-1.78.15c-.92.17-1.8.52-2.73.62-.27,0,0,.42.23.41,1,0,1.89-.29,2.85-.39.49,0,1-.06,1.49-.08a31.6,31.6,0,0,0,.48,3.38s0,0,0,0c-.18.06,0,.28.13.37a34.79,34.79,0,0,0,1.86,6c-.63.18-1.26.44-1.8.58-.82.21-1.66.37-2.47.63s-1.78.8-2.71,1c-.33.07,0,.52.27.5,1.8-.21,3.66-.79,5.45-1.17q.88-.18,1.77-.39c.1.21.19.41.29.61.25.52.55,1.13.89,1.76l-1.42.61A19.47,19.47,0,0,0,134,83.9c-.21.13.13.48.31.39A18.83,18.83,0,0,1,137,82.83l1.38-.43a8,8,0,0,0,3.14,3.32c-.19,0-.35.08-.42.11a28.77,28.77,0,0,0-3.52,1.42c-.79.39-2.28.93-2.78,1.73a12.86,12.86,0,0,0-1.3,3c-.05.15.24.41.37.27,1.14-1.31,1.72-2.64,3.34-3.51a35.59,35.59,0,0,1,3.4-1.66A12.11,12.11,0,0,0,143,86.06c2-.06,2.79-3.27,3.07-4.76a32.48,32.48,0,0,0-3.41-20.16,12.66,12.66,0,0,0-2.52-4.48,2.4,2.4,0,0,0-1.48-.85,3.2,3.2,0,0,0-2.64-.72c-1.79.16-5.24-1.23-6.32-2.71-.06-.08-.34-.15-.26,0a6.77,6.77,0,0,0,3.45,3.11,11.25,11.25,0,0,0,2.79,1.25,4.4,4.4,0,0,0,.62,0,4.55,4.55,0,0,0-.56.73,1.53,1.53,0,0,0-.49-.07,3.26,3.26,0,0,1-1.53-.34c-.3-.15-.33.19-.1.32a4.12,4.12,0,0,0,1.12.43c.25.06.5.08.74.12l-.15.3a5.49,5.49,0,0,0-2.44-.52c-1.06-.12-2.12-.34-3.17-.51-.33-.06-.07.37.13.42a26.46,26.46,0,0,0,2.9.67,15.48,15.48,0,0,1,2.36.38A16.85,16.85,0,0,0,133.75,65c-2.05-.06-4,.15-6,.22a34.53,34.53,0,0,1-9.28-1.44C118.16,63.7,118.36,64.09,118.5,64.14Zm17.41-4.74c1.27-2,3.43-3.6,5,0a59.23,59.23,0,0,1,2.7,7.53c0,.09.25.21.27.09a43.72,43.72,0,0,1,.76,6.4,4,4,0,0,1-1.24-.25c-.41-.14-.23.36,0,.47a6.23,6.23,0,0,0,1.26.43c0,.66,0,1.3,0,1.92l-.05,0c-.5.35-1.2.21-1.76.37h0a.19.19,0,0,0-.09.24.6.6,0,0,0,.42.37,5.1,5.1,0,0,0,1.3.14h0a.28.28,0,0,0,.15.08,12.93,12.93,0,0,1-.79,5.23c-1,2.27-2.35,1.89-3.54.71.87-3.71,1.48-8.27.62-12-1-4.22-3.18-7.66-4.91-11.56A.64.64,0,0,0,135.91,59.4Z"></path><path class="cls-8" d="M142.62,70.22c.23,0,.45,0,.68,0a1.39,1.39,0,0,0,.61-.25c.15-.08.34.11.38.24.24.72-1.12.48-1.47.46C142.63,70.67,142.34,70.22,142.62,70.22Z"></path></g><path class="cls-5" d="M87.71,124.31h0c.13-2,3.26-3.2,4.52-1.35a1.41,1.41,0,0,1-.26,2,3.52,3.52,0,0,1-1.59,1.42,2,2,0,0,1-2.56-1.24,1.85,1.85,0,0,1-.11-.55C87.65,124.46,87.61,124.36,87.71,124.31Z"></path><path class="cls-5" d="M120.56,118c1.06-1.11,2.07-2.53,3.79-2a1.72,1.72,0,0,1,1.21,2.25,1,1,0,0,1-.12.65c-.87,1.47-3.8,3.39-5.4,2.08C118.93,120,119.79,118.76,120.56,118Z"></path><path class="cls-5" d="M21.22,91.05a3.05,3.05,0,0,1,1.71.93,2.76,2.76,0,0,1,1,1.7.43.43,0,0,1-.24.43,1.89,1.89,0,0,1-1.61-.29c-.43-.26-1.2-1-1.09-1.57a2.88,2.88,0,0,1-.25-.62C20.61,91.24,20.84,91,21.22,91.05Z"></path><path class="cls-6" d="M7.69,70.62a2.34,2.34,0,0,1,3.63-.2,7.71,7.71,0,0,1,1.87,2.87,10.57,10.57,0,0,1,1.6,4,6.57,6.57,0,0,1-.24,2.49l-.06.4A2.31,2.31,0,0,1,11,81.86,5,5,0,0,1,8.15,80C6.1,77.58,6.06,73.27,7.69,70.62Z"></path><path class="cls-5" d="M11.14,61.63a.59.59,0,0,1,.66-.17,1,1,0,0,1,.8.9,2.72,2.72,0,0,1,.09.43c0,.22-.2.31-.38.28a.9.9,0,0,1-.61-.45.73.73,0,0,1,0-.09l-.15-.08C11.25,62.3,10.94,61.93,11.14,61.63Z"></path><path class="cls-5" d="M40.83,28.54a1.87,1.87,0,0,1,2.64-.18c.11,0,.3.16.27.28v0a.66.66,0,0,1-.19,1,2.28,2.28,0,0,1-.45.2,1.89,1.89,0,0,1-1.35.62A1.17,1.17,0,0,1,40.83,28.54Z"></path><path class="cls-4" d="M71.08,4.36c10-2.4,20.32,2.2,29.05,6.89.18.1.24.44,0,.34C95.52,10.1,91.17,8,86.57,6.48a37.15,37.15,0,0,0-15.32-1.8C71.1,4.69,70.86,4.41,71.08,4.36Z"></path></g></g></g></svg>